<svg xmlns="http://www.w3.org/2000/svg" width="580" height="580" viewBox="0 0 580 580">
  <g id="numbers">
    <path d="M319.63,350.75a1.82,1.82,0,0,1-.67-.55,1.62,1.62,0,0,1-.29-.95,1.7,1.7,0,0,1,.83-1.44,3,3,0,0,1,1.71-.43,3.28,3.28,0,0,1,2.08.54,1.65,1.65,0,0,1,.68,1.35,1.63,1.63,0,0,1-.27.89,2.41,2.41,0,0,1-.63.59,2,2,0,0,1,.85.72,1.93,1.93,0,0,1,.28,1,2.13,2.13,0,0,1-.24,1,2,2,0,0,1-.6.7,2.36,2.36,0,0,1-.88.37,5,5,0,0,1-1.12.12,4.21,4.21,0,0,1-1.7-.27,2,2,0,0,1-.9-.77,2.27,2.27,0,0,1-.3-1.15,1.66,1.66,0,0,1,1.17-1.71Zm.77,1.64a1.08,1.08,0,0,0,.28.76.88.88,0,0,0,.65.3.86.86,0,0,0,.63-.3,1.09,1.09,0,0,0,.28-.76,1.08,1.08,0,0,0-.28-.76.88.88,0,0,0-.65-.3.85.85,0,0,0-.64.29A1.08,1.08,0,0,0,320.4,352.39Zm.11-3a.8.8,0,0,0,.22.59.89.89,0,0,0,.61.22.72.72,0,0,0,.55-.22.77.77,0,0,0,.22-.57.81.81,0,0,0-.23-.59.74.74,0,0,0-.57-.23.76.76,0,0,0-.8.8Z"/>
    <path d="M415.06,267.76a1.61,1.61,0,0,1-.57-.46,1.37,1.37,0,0,1-.25-.82,1.44,1.44,0,0,1,.71-1.23,2.58,2.58,0,0,1,1.47-.37,2.81,2.81,0,0,1,1.78.46,1.39,1.39,0,0,1,.58,1.15,1.36,1.36,0,0,1-.23.76,1.67,1.67,0,0,1-.54.51,1.8,1.8,0,0,1,.73.62,1.62,1.62,0,0,1,.24.86,1.86,1.86,0,0,1-.72,1.45,2.15,2.15,0,0,1-.75.31,4.22,4.22,0,0,1-1,.1,3.73,3.73,0,0,1-1.46-.22,1.69,1.69,0,0,1-.77-.67,1.91,1.91,0,0,1-.26-1,1.63,1.63,0,0,1,.24-.9A1.68,1.68,0,0,1,415.06,267.76Zm.67,1.41a.9.9,0,0,0,.24.65.7.7,0,0,0,1.09,0,.92.92,0,0,0,.24-.65.88.88,0,0,0-.24-.65.76.76,0,0,0-.56-.26.69.69,0,0,0-.54.25A.89.89,0,0,0,415.73,269.17Zm.09-2.59a.65.65,0,0,0,.19.5.69.69,0,0,0,.52.19.64.64,0,0,0,.47-.18.66.66,0,0,0,.19-.49.69.69,0,0,0-.2-.51.7.7,0,0,0-1,0A.64.64,0,0,0,415.82,266.58Z"/>
    <path d="M335.09,273a1.53,1.53,0,0,1-.57-.47,1.39,1.39,0,0,1-.25-.81,1.44,1.44,0,0,1,.71-1.23,2.58,2.58,0,0,1,1.47-.37,2.81,2.81,0,0,1,1.78.46,1.41,1.41,0,0,1,.35,1.91,1.67,1.67,0,0,1-.54.51,1.74,1.74,0,0,1,.73.62,1.62,1.62,0,0,1,.24.86,1.74,1.74,0,0,1-.21.84,1.83,1.83,0,0,1-.51.61,2.15,2.15,0,0,1-.75.31,4.22,4.22,0,0,1-1,.1,3.73,3.73,0,0,1-1.46-.22,1.69,1.69,0,0,1-.77-.67,1.91,1.91,0,0,1-.26-1,1.63,1.63,0,0,1,.24-.9A1.68,1.68,0,0,1,335.09,273Zm.67,1.41a.9.9,0,0,0,.24.65.7.7,0,0,0,1.09,0,1,1,0,0,0,0-1.31.75.75,0,0,0-.56-.25.69.69,0,0,0-.54.25A.89.89,0,0,0,335.76,274.37Zm.09-2.59a.65.65,0,0,0,.19.5.69.69,0,0,0,.52.19.64.64,0,0,0,.47-.18.66.66,0,0,0,.19-.49.69.69,0,0,0-.2-.51.7.7,0,0,0-1,0A.64.64,0,0,0,335.85,271.78Z"/>
    <path d="M317.65,238.28a1.67,1.67,0,0,1-.58-.47,1.4,1.4,0,0,1-.24-.81,1.43,1.43,0,0,1,.71-1.24,2.65,2.65,0,0,1,1.46-.37,2.91,2.91,0,0,1,1.79.46,1.44,1.44,0,0,1,.58,1.16,1.41,1.41,0,0,1-.23.76,2,2,0,0,1-.55.51,1.67,1.67,0,0,1,.73.62,1.58,1.58,0,0,1,.24.85,1.9,1.9,0,0,1-.2.85,1.69,1.69,0,0,1-.51.6,2,2,0,0,1-.76.32,4.69,4.69,0,0,1-.95.1,3.76,3.76,0,0,1-1.47-.23,1.64,1.64,0,0,1-.76-.66,1.85,1.85,0,0,1-.27-1,1.59,1.59,0,0,1,.25-.9A1.51,1.51,0,0,1,317.65,238.28Zm.66,1.41a.92.92,0,0,0,.24.65.75.75,0,0,0,.56.25.7.7,0,0,0,.54-.26.94.94,0,0,0,.23-.65.92.92,0,0,0-.24-.65.73.73,0,0,0-.55-.25.75.75,0,0,0-.55.24A1,1,0,0,0,318.31,239.69Zm.09-2.59a.69.69,0,0,0,.2.5.69.69,0,0,0,.52.19.63.63,0,0,0,.47-.19.67.67,0,0,0,.18-.49.69.69,0,1,0-1.37,0Z"/>
    <g>
      <path d="M394.74,122.1v8.73h-2.42v-5.72a6.62,6.62,0,0,1-1.13.72,9.18,9.18,0,0,1-1.37.53v-2a5.93,5.93,0,0,0,1.89-.94,3.8,3.8,0,0,0,1.05-1.36Z"/>
      <path d="M402.74,122.1v8.73h-2.41v-5.72a6.68,6.68,0,0,1-1.14.72,9.18,9.18,0,0,1-1.37.53v-2a5.93,5.93,0,0,0,1.89-.94,3.94,3.94,0,0,0,1.06-1.36Z"/>
    </g>
    <g>
      <path d="M427.11,60.22V69H424.7V63.23a6.68,6.68,0,0,1-1.14.72,8.2,8.2,0,0,1-1.37.53v-2a5.73,5.73,0,0,0,1.89-.94,3.94,3.94,0,0,0,1.06-1.36Z"/>
      <path d="M435.11,60.22V69H432.7V63.23a7,7,0,0,1-1.13.72,8.71,8.71,0,0,1-1.38.53v-2a5.64,5.64,0,0,0,1.89-.94,3.83,3.83,0,0,0,1.06-1.36Z"/>
    </g>
    <g>
      <path d="M414.84,176.51v8.74h-2.41v-5.73a6.68,6.68,0,0,1-1.14.72,8.2,8.2,0,0,1-1.37.53v-2a5.93,5.93,0,0,0,1.89-.95,3.94,3.94,0,0,0,1.06-1.36Z"/>
      <path d="M417.44,180.92a5.14,5.14,0,0,1,.88-3.43,3.44,3.44,0,0,1,2.68-1,3.87,3.87,0,0,1,1.43.22,2.63,2.63,0,0,1,.91.55,3,3,0,0,1,.55.72,4,4,0,0,1,.33.89,8.18,8.18,0,0,1,.24,2,5.82,5.82,0,0,1-.8,3.42,3.14,3.14,0,0,1-2.72,1.09,3.8,3.8,0,0,1-1.75-.35,2.88,2.88,0,0,1-1.1-1,3.89,3.89,0,0,1-.48-1.3A8.6,8.6,0,0,1,417.44,180.92Zm2.36,0a5.93,5.93,0,0,0,.29,2.25.92.92,0,0,0,.84.6.86.86,0,0,0,.63-.26,1.62,1.62,0,0,0,.4-.8,8.89,8.89,0,0,0,.12-1.72,5.86,5.86,0,0,0-.29-2.3.93.93,0,0,0-.87-.59.88.88,0,0,0-.85.6A6.14,6.14,0,0,0,419.8,180.92Z"/>
    </g>
    <g>
      <path d="M457,91.2v8.74h-2.42V94.21a7,7,0,0,1-1.13.72,8.35,8.35,0,0,1-1.38.53v-2a5.7,5.7,0,0,0,1.9-.94A3.8,3.8,0,0,0,455,91.2Z"/>
      <path d="M459.55,95.61a5.18,5.18,0,0,1,.88-3.43,3.46,3.46,0,0,1,2.69-1,4.05,4.05,0,0,1,1.42.21,2.61,2.61,0,0,1,.91.56,3.05,3.05,0,0,1,.56.72,3.94,3.94,0,0,1,.32.88,8.26,8.26,0,0,1,.24,2,5.85,5.85,0,0,1-.79,3.42,3.15,3.15,0,0,1-2.72,1.08,3.86,3.86,0,0,1-1.76-.34,2.8,2.8,0,0,1-1.09-1,3.8,3.8,0,0,1-.49-1.3A9.13,9.13,0,0,1,459.55,95.61Zm2.37,0a5.9,5.9,0,0,0,.29,2.24.9.9,0,0,0,.84.6.88.88,0,0,0,.63-.25,1.54,1.54,0,0,0,.39-.81,7.89,7.89,0,0,0,.13-1.71,6.06,6.06,0,0,0-.29-2.3.91.91,0,0,0-.87-.59.89.89,0,0,0-.86.6A6.44,6.44,0,0,0,461.92,95.61Z"/>
    </g>
    <path d="M361.37,268l2.37-.3a1.24,1.24,0,0,0,.32.7.76.76,0,0,0,.54.21,1,1,0,0,0,.9-.58,5.69,5.69,0,0,0,.35-1.81,3.12,3.12,0,0,1-.88.64,2.44,2.44,0,0,1-1,.21,2.64,2.64,0,0,1-1.95-.82,2.87,2.87,0,0,1-.79-2.08,3.07,3.07,0,0,1,.4-1.56,2.64,2.64,0,0,1,1.11-1.06,4,4,0,0,1,1.78-.36,4.24,4.24,0,0,1,2.07.44,3.11,3.11,0,0,1,1.25,1.41,5.89,5.89,0,0,1,.46,2.54,5,5,0,0,1-1,3.41,3.5,3.5,0,0,1-2.72,1.08,4.37,4.37,0,0,1-1.61-.24,2.43,2.43,0,0,1-1-.69A3.17,3.17,0,0,1,361.37,268Zm4.39-3.83a1.63,1.63,0,0,0-.35-1.1,1.11,1.11,0,0,0-.86-.39,1,1,0,0,0-.78.35,1.6,1.6,0,0,0-.32,1.08,1.64,1.64,0,0,0,.33,1.1,1,1,0,0,0,.81.38,1.07,1.07,0,0,0,.84-.37A1.54,1.54,0,0,0,365.76,264.18Z"/>
    <path d="M424.35,458.51v8.73h-2.42v-5.72a8.77,8.77,0,0,1-1.13.72,8.41,8.41,0,0,1-1.38.52v-1.95a5.69,5.69,0,0,0,1.9-.95,3.77,3.77,0,0,0,1.05-1.35Z"/>
    <path d="M211.84,448.07v8.74h-2.41v-5.72a7,7,0,0,1-2.51,1.24v-1.95a5.93,5.93,0,0,0,1.89-.95,3.85,3.85,0,0,0,1.06-1.36Z"/>
    <path d="M167.82,441.84v8.73h-2.41v-5.72a6.68,6.68,0,0,1-1.14.72,9.18,9.18,0,0,1-1.37.53v-2a5.93,5.93,0,0,0,1.89-.94,3.94,3.94,0,0,0,1.06-1.36Z"/>
    <path d="M135,430.12v8.74h-2.42v-5.73a7,7,0,0,1-1.13.72,9.81,9.81,0,0,1-1.38.53v-2a5.7,5.7,0,0,0,1.9-.94,3.8,3.8,0,0,0,1-1.36Z"/>
    <path d="M102.55,449.39v8.74h-2.41V452.4a6.68,6.68,0,0,1-1.14.72,8.2,8.2,0,0,1-1.37.53v-2a5.73,5.73,0,0,0,1.89-.94,3.94,3.94,0,0,0,1.06-1.36Z"/>
    <path d="M52.29,430.12v8.74H49.88v-5.73a6.68,6.68,0,0,1-1.14.72,9.18,9.18,0,0,1-1.37.53v-2a5.73,5.73,0,0,0,1.89-.94,3.94,3.94,0,0,0,1.06-1.36Z"/>
    <path d="M459.14,417.83H452a4.52,4.52,0,0,1,.74-2,10.23,10.23,0,0,1,2.35-2.21,7.44,7.44,0,0,0,1.34-1.18,1.37,1.37,0,0,0,.29-.77.92.92,0,0,0-.29-.67,1,1,0,0,0-.73-.28,1.05,1.05,0,0,0-.75.29,1.8,1.8,0,0,0-.39,1l-2.39-.19a3.85,3.85,0,0,1,.52-1.57,2.35,2.35,0,0,1,1.06-.87,4.78,4.78,0,0,1,1.89-.3,5.16,5.16,0,0,1,2,.29,2.39,2.39,0,0,1,1.1.88,2.29,2.29,0,0,1,.4,1.33,2.72,2.72,0,0,1-.46,1.5,6.42,6.42,0,0,1-1.67,1.57c-.48.33-.81.57-1,.7a7.54,7.54,0,0,0-.57.52h3.73Z"/>
    <path d="M330.71,398.77h-7.16a4.65,4.65,0,0,1,.75-2,10.14,10.14,0,0,1,2.34-2.2,6.72,6.72,0,0,0,1.34-1.19,1.3,1.3,0,0,0,.3-.77.92.92,0,0,0-.29-.67,1.05,1.05,0,0,0-.73-.28,1,1,0,0,0-.75.29,1.81,1.81,0,0,0-.39,1l-2.39-.2a3.76,3.76,0,0,1,.52-1.57,2.38,2.38,0,0,1,1.05-.87,4.85,4.85,0,0,1,1.89-.3,5.33,5.33,0,0,1,2,.29,2.34,2.34,0,0,1,1.51,2.21,2.75,2.75,0,0,1-.46,1.5,6.32,6.32,0,0,1-1.68,1.57c-.48.33-.8.57-1,.7s-.35.31-.57.52h3.72Z"/>
    <path d="M485.09,520.44l-2.26-.41a2.81,2.81,0,0,1,1.09-1.65,4.92,4.92,0,0,1,4.69,0,2,2,0,0,1,.75,1.58,1.79,1.79,0,0,1-.3,1,2.7,2.7,0,0,1-.92.79,3.06,3.06,0,0,1,.76.28,1.85,1.85,0,0,1,.66.7,2.09,2.09,0,0,1,.24,1,2.89,2.89,0,0,1-.39,1.44,2.7,2.7,0,0,1-1.13,1.06,4.44,4.44,0,0,1-1.94.37,4.89,4.89,0,0,1-1.85-.28,2.74,2.74,0,0,1-1.11-.8,3.67,3.67,0,0,1-.67-1.34l2.38-.31a1.83,1.83,0,0,0,.44,1,1.07,1.07,0,0,0,.75.28,1,1,0,0,0,.8-.36,1.33,1.33,0,0,0,.32-.93,1.29,1.29,0,0,0-.31-.93,1.07,1.07,0,0,0-.83-.33,3.22,3.22,0,0,0-.78.14l.13-1.7.31,0a1.09,1.09,0,0,0,.78-.3,1,1,0,0,0,.31-.71.89.89,0,0,0-.23-.63.9.9,0,0,0-.65-.23.92.92,0,0,0-.68.25A1.51,1.51,0,0,0,485.09,520.44Z"/>
    <path d="M302.23,505.52l-2.26-.4a2.84,2.84,0,0,1,1.08-1.65,3.81,3.81,0,0,1,2.27-.58,3.77,3.77,0,0,1,2.43.63,2,2,0,0,1,.75,1.57,1.7,1.7,0,0,1-.31,1,2.51,2.51,0,0,1-.92.79,3,3,0,0,1,.77.29,2,2,0,0,1,.66.69,2.09,2.09,0,0,1,.24,1,2.89,2.89,0,0,1-.39,1.44,2.66,2.66,0,0,1-1.14,1.06,4.25,4.25,0,0,1-1.93.37,5.09,5.09,0,0,1-1.85-.27,2.7,2.7,0,0,1-1.12-.81,3.69,3.69,0,0,1-.67-1.33l2.39-.32a1.87,1.87,0,0,0,.43,1,1.13,1.13,0,0,0,1.56-.07,1.35,1.35,0,0,0,.32-.94,1.31,1.31,0,0,0-.31-.92,1.11,1.11,0,0,0-.84-.33,3.24,3.24,0,0,0-.77.14l.12-1.71.31,0a1.09,1.09,0,0,0,.79-.3,1,1,0,0,0,.31-.7.82.82,0,0,0-.24-.63.84.84,0,0,0-.64-.24,1,1,0,0,0-.69.26A1.57,1.57,0,0,0,302.23,505.52Z"/>
    <path d="M425.49,319.48h-4.35v-2l4.35-5.17h2.08v5.28h1.08v1.85h-1.08v1.6h-2.08Zm0-1.85v-2.71l-2.29,2.71Z"/>
    <path d="M226.81,226.22h-4.35v-2l4.35-5.17h2.08v5.28H230v1.85h-1.08v1.61h-2.08Zm0-1.85v-2.7l-2.29,2.7Z"/>
    <path d="M475.87,299.68h5.66v1.9h-3.84l-.2,1.29a3.56,3.56,0,0,1,.79-.28,3.39,3.39,0,0,1,.77-.1,2.88,2.88,0,0,1,2.09.78,2.65,2.65,0,0,1,.8,2,3.43,3.43,0,0,1-.41,1.6,2.87,2.87,0,0,1-1.17,1.17,4.15,4.15,0,0,1-1.95.4,5.58,5.58,0,0,1-1.45-.16,3,3,0,0,1-1-.48,2.61,2.61,0,0,1-.69-.72,3.79,3.79,0,0,1-.44-1l2.41-.26a1.51,1.51,0,0,0,.41.88,1.1,1.1,0,0,0,.77.3,1,1,0,0,0,.82-.38,1.68,1.68,0,0,0,.33-1.13,1.61,1.61,0,0,0-.33-1.12,1.12,1.12,0,0,0-.87-.36,1.48,1.48,0,0,0-.67.17,1.83,1.83,0,0,0-.53.45l-2-.3Z"/>
    <path d="M260.08,299.68h5.67v1.9h-3.84l-.21,1.29a3.75,3.75,0,0,1,.79-.28,3.46,3.46,0,0,1,.77-.1,2.86,2.86,0,0,1,2.09.78,2.62,2.62,0,0,1,.81,2,3.33,3.33,0,0,1-.42,1.6,2.75,2.75,0,0,1-1.17,1.17,4.11,4.11,0,0,1-1.94.4,5.66,5.66,0,0,1-1.46-.16,3.07,3.07,0,0,1-1-.48,2.94,2.94,0,0,1-.69-.72,4.14,4.14,0,0,1-.44-1l2.42-.26a1.46,1.46,0,0,0,.41.88,1.07,1.07,0,0,0,.76.3,1.05,1.05,0,0,0,.83-.38,1.73,1.73,0,0,0,.32-1.13,1.61,1.61,0,0,0-.33-1.12,1.1,1.1,0,0,0-.87-.36,1.48,1.48,0,0,0-.67.17,1.82,1.82,0,0,0-.52.45l-2-.3Z"/>
    <path d="M416.86,401.07l-1.41.17a.78.78,0,0,0-.18-.42.48.48,0,0,0-.33-.12.59.59,0,0,0-.53.35,3.12,3.12,0,0,0-.21,1.07,1.91,1.91,0,0,1,.52-.38,1.54,1.54,0,0,1,.63-.12,1.52,1.52,0,0,1,1.15.49,1.66,1.66,0,0,1,.47,1.23,1.84,1.84,0,0,1-.24.93,1.54,1.54,0,0,1-.66.63,2.35,2.35,0,0,1-1.06.21,2.44,2.44,0,0,1-1.23-.26A1.78,1.78,0,0,1,413,404a3.59,3.59,0,0,1-.28-1.52,3,3,0,0,1,.58-2,2.07,2.07,0,0,1,1.62-.64,2.74,2.74,0,0,1,1,.14,1.57,1.57,0,0,1,.59.41A2,2,0,0,1,416.86,401.07Zm-2.61,2.27a.92.92,0,0,0,.21.65.65.65,0,0,0,.51.24.61.61,0,0,0,.47-.21,1,1,0,0,0,.19-.64,1,1,0,0,0-.2-.66.61.61,0,0,0-.48-.22.63.63,0,0,0-.5.22A.89.89,0,0,0,414.25,403.34Z"/>
    <path d="M368.83,390.35l-1.41.18a.75.75,0,0,0-.19-.42.47.47,0,0,0-.32-.12.59.59,0,0,0-.54.34,3.41,3.41,0,0,0-.21,1.08,1.81,1.81,0,0,1,.53-.38,1.35,1.35,0,0,1,.62-.13,1.56,1.56,0,0,1,1.15.49,1.7,1.7,0,0,1,.47,1.24,1.93,1.93,0,0,1-.23.92,1.51,1.51,0,0,1-.67.63,2.22,2.22,0,0,1-1.06.22,2.55,2.55,0,0,1-1.23-.26,1.92,1.92,0,0,1-.74-.84,3.59,3.59,0,0,1-.28-1.52,2.94,2.94,0,0,1,.59-2,2,2,0,0,1,1.61-.65,2.47,2.47,0,0,1,1,.15,1.4,1.4,0,0,1,.59.41A1.77,1.77,0,0,1,368.83,390.35Zm-2.62,2.28a1,1,0,0,0,.21.65.68.68,0,0,0,.51.23.59.59,0,0,0,.47-.21.9.9,0,0,0,.19-.63,1,1,0,0,0-.2-.66.62.62,0,0,0-.48-.23.65.65,0,0,0-.5.22A.93.93,0,0,0,366.21,392.63Z"/>
    <path d="M355.44,295.66h5.18v1.19a6.6,6.6,0,0,0-1.13,1.32,7.53,7.53,0,0,0-.87,1.93,9,9,0,0,0-.34,1.94h-1.77a10.3,10.3,0,0,1,.66-2.62,9.76,9.76,0,0,1,1.42-2.26h-3.15Z"/>
  </g>
  <g id="colorable">
    <path id="color-11" d="M427.79,106.77l-35.52-32.3,75.14-52.06Z" style="fill: #8fc3ea"/>
    <path id="color-10" d="M431.75,108.6l38.63-84.69,9,90.92Z" style="fill: #56a0d3"/>
    <path id="color-11-2" data-name="color-11" d="M355.44,226l35-148.69,35.45,33.63-54.4,117.62A41.17,41.17,0,0,0,355.44,226Z" style="fill: #8fc3ea"/>
    <path id="color-10-2" data-name="color-10" d="M429.83,112.74l48.54,5.3L388.25,240.28a39.33,39.33,0,0,0-12.77-10Z" style="fill: #56a0d3"/>
    <path id="color-4" d="M225,246.49a17.37,17.37,0,0,0-4.47,9.07,28,28,0,1,1,26.27-8.38l-2.21-2a13.54,13.54,0,0,0-8.92-3.18A14.86,14.86,0,0,0,225,246.49Z" style="fill: #fdbe57"/>
    <path id="color-8" d="M300.32,246.88c-1.24-17.26,13.08-28.16,21.8-30.33-3.76,8.45-1.7,18,5.56,24.79a52,52,0,0,0-4.85,10.13c-6.55-4.64-9.72-12.77-8-19.87.41-1.66-.57-2.32-1.59-.88-8.11,11.42-2.74,23,7.09,31-.73,6.09-.07,12.48,3.32,18C314.3,274.08,301.49,263.25,300.32,246.88Z" style="fill: #009ddc"/>
    <path id="color-8-2" data-name="color-8" d="M328.75,268a33.58,33.58,0,0,0,18.31,18.43,36.2,36.2,0,0,0,14.37,3c12.34,0,23.32-6.51,28-16.57a26.54,26.54,0,0,0,.53-20.81,33.57,33.57,0,0,0-18.32-18.43,36.12,36.12,0,0,0-14.36-3c-12.34,0-23.32,6.51-28,16.57A26.58,26.58,0,0,0,328.75,268Zm8.65-19.12c3.73-8,12.69-13.45,22.32-13.45a25.2,25.2,0,0,1,10,2,24.62,24.62,0,0,1,13.24,13.7,21.93,21.93,0,0,1-.37,17.17C379,276,370.67,281,361.35,281a27,27,0,0,1-10.66-2.2A25.2,25.2,0,0,1,337,264.94,20.57,20.57,0,0,1,337.4,248.84Z" style="fill: #009ddc"/>
    <path id="color-9" d="M380.66,258.88a17.39,17.39,0,0,1-1.55,7.83c-2.95,6.37-9.92,10.48-17.76,10.48a23.29,23.29,0,0,1-9.16-1.89,21.38,21.38,0,0,1-11.63-11.67,16.48,16.48,0,0,1,1.47-6,18.54,18.54,0,0,1,6.06-7.21c1.16,3.67,5.09,6.68,10.13,7.37,6.52.9,12.47-2.44,13.28-7.43a6.57,6.57,0,0,0,.08-1.47A20.64,20.64,0,0,1,380.66,258.88Z" style="fill: #f58025"/>
    <path id="color-8-3" data-name="color-8" d="M390.34,280.22a53.24,53.24,0,0,0,4.45-10.12c10.15.72,19.08-4.2,23-12.66,4.19,7.67,5.24,25.73-8.85,35.91-12.94,9.35-30.19,8.26-40.9,5.39,6.51-1.32,11.82-5.13,16-9.73,12.75,1.7,25.32-2.22,28.71-15.68.43-1.69-.74-1.95-1.74-.55C406.55,279,398.74,282.05,390.34,280.22Z" style="fill: #009ddc"/>
    <path id="color-7" d="M296.86,249.89c2.86,18.08,17.47,29.08,27.19,34.5l-2.16,4.67C305.07,281.17,294.18,266.83,296.86,249.89Zm10.75,108.87c-2,0-3.57.64-4.05,1.65-.85,1.85,1.48,5.43,5.88,7.47a13.16,13.16,0,0,0,5.44,1.28c2,0,3.58-.63,4.05-1.64.85-1.85-1.48-5.43-5.88-7.47A13.18,13.18,0,0,0,307.61,358.76Zm100-59.46c.38-.39.74-.79,1.11-1.2a45.66,45.66,0,0,1-24.54,6.69,68.11,68.11,0,0,1-20.06-3.23L362,306.19C379.56,313.06,396.9,310.51,407.6,299.3Zm-83.3-6.36c.72.15,1.42.35,2.12.56,4.28-4.61,11.81-5.8,18.63-2.64,8,3.68,12,12.07,9.27,19,1-.08,1.95-.22,2.91-.38a2.47,2.47,0,0,1,.08-2.31c.61-1.24,4.92-10.63,4.92-10.63a1.9,1.9,0,0,1,1.65-1.1,22.76,22.76,0,0,0,14.49-6.28,37.06,37.06,0,0,1-16.94,4,40.2,40.2,0,0,1-15.87-3.28,37.46,37.46,0,0,1-20.37-20.58c-.37-1-.7-1.95-1-2.94a22,22,0,0,0,4.23,13.45,3.29,3.29,0,0,1,.4,3.34C328.5,284,325,291.5,324.3,292.94Z" style="fill: #0079c1"/>
    <path id="color-5" d="M418.8,293.58c5.58-9.08,8.85-20,6.84-30.24,35.88,4.72,66,21.76,85.05,48.32,15.85,22.07,22.84,48.68,19.17,72.19a48.36,48.36,0,0,0-9.14-2.91C509.29,349,490.58,327.06,468.91,313A135.52,135.52,0,0,0,418.8,293.58ZM396.39,261.3a28.61,28.61,0,0,1-.11,3.58,19.66,19.66,0,0,0,11-3.35C403.72,261.36,400,261.23,396.39,261.3Z" style="fill: #387c2b"/>
    <path id="color-5-2" data-name="color-5" d="M281.65,323.33A73.74,73.74,0,0,0,277.39,351a147.36,147.36,0,0,1-22.11-21.33c-18.73-22.21-30-51.05-30.35-69.18-.1-5.23,1.55-8.53,3.55-10.59a9.89,9.89,0,0,1,7.16-3h0a8.62,8.62,0,0,1,5.61,1.92c14.51,13,31.31,25.64,46.49,30.64-6.25,1.86-15.53,1.07-17.88.68-7-.66-13.28-5.29-13.82-2.87s5.71,6,13.85,7.84c11.06,2.06,20.59-.25,27.1-4h0l3.21-1.66a52.28,52.28,0,0,0,14.44,12c.14.35.32.69.47,1C302.44,293.92,289,303.63,281.65,323.33Z" style="fill: #387c2b"/>
    <path id="color-4-2" data-name="color-4" d="M505.1,380l1.81-.27A106.28,106.28,0,0,0,497.67,363c-10-15.74-20.58-24.68-21.89-21.66-.8,1.85,8.24,9.08,18.34,25.19a100.74,100.74,0,0,1,7.68,13.88c-1.9.26-3.81.6-5.61,1-12.79-19.88-34.08-37.68-60.95-49.07a143.53,143.53,0,0,0-55.47-11.7,106,106,0,0,0-32.5,4.87c2.09-4,3.91-7.48,5.24-10.06A39.08,39.08,0,0,0,365,313a75.43,75.43,0,0,0,16.08,2.44c11.88,0,22.66-4.22,30.47-12.4a56.52,56.52,0,0,0,4.4-5.23c17.9,3.06,35.82,9.85,50.3,19.27,20.23,13.16,37.78,33.34,48.94,63a33.23,33.23,0,0,0-8.28-.23Z" style="fill: #fdbe57"/>
    <path id="color-8-4" data-name="color-8" d="M315.34,355.11a18.68,18.68,0,0,0-7.73-1.79c-.43,0-.84,0-1.25.06.67-1.68,1.45-3.65,2.3-5.77a27.25,27.25,0,0,0,5.08-.66c9.4-2.12,18-9.73,22.77-17.6,4.13-6.81,5.51-16.42,2.84-23.61a19.68,19.68,0,0,0-9-10.61c3.31-2.5,8.45-3,13.11-.81,6.31,2.92,9.51,9.47,7.14,14.6-.2.43-21.37,39.12-28.13,51.9A18,18,0,0,0,315.34,355.11Z" style="fill: #009ddc"/>
    <path id="color-1" d="M509,384.66c-13.44-.17-23.57,4.37-24.13,1.73-.25-1.15,2.38-2.54,6.28-3.74-12.28-18.38-32.35-35.11-57.83-45.85a138.62,138.62,0,0,0-53.56-11.32,98.39,98.39,0,0,0-35.83,6.32c-8.88,16.89-20,37.83-20.14,38.13h0c-1.43,2.93-4.75,4.68-8.92,4.68a18.68,18.68,0,0,1-7.73-1.79c-7-3.24-10.74-9.61-8.58-14.55h0s1.83-4.62,4.51-11.34c-3.84-1.17-5.4-3.49-5.12-4.07.66-1.34,6.89,1.48,14.76-.6,6.75-1.78,14.17-7.55,19.14-15.74,3.3-5.41,4.5-13.22,2.4-18.89a14.08,14.08,0,0,0-9-8.81c-12.74-4.16-30.06,3.58-38.52,26.4-8.78,23.66-1.43,52.45,7.66,68.79l1-5c1.9-7.81,4.4-13.74,6-13.41,2.35.48-1.74,12.09-3.15,24.53h0a104,104,0,0,0-.61,11.23,102.6,102.6,0,0,0,190.06,53.68c-4.26-.61-8.57-1.7-8.42-3.15.25-2.3,11.12-1.19,15-1.19,17.64,0,31.16-5.88,40.31-14.15s13.88-19,13.87-28.66a28.41,28.41,0,0,0-.57-5.73C544.82,397.37,531.39,384.72,509,384.66ZM345,398.52c-1.1,4.75-6.61,7.82-14,7.82a28,28,0,0,1-6.37-.75c-9.83-2.27-16.67-9.14-15.24-15.31,1.1-4.75,6.61-7.82,14.05-7.82a28.59,28.59,0,0,1,6.37.74C339.55,385.47,346.39,392.35,345,398.52Zm19.21,5.92c-10.43-1.95-8.44-21.23-6.33-32.54,1.62-8.65,5-21.59,11.14-26.35a64.68,64.68,0,0,0-11.36-8.09,1.91,1.91,0,0,1,1.78-3.37c9.2,4.92,22,16.46,28.61,27.34.36.59,1.54,2.33-.11,3.25-1.89,1.05-2.74-.61-3-1.08-.43-.71-.89-1.42-1.37-2.15a94.35,94.35,0,0,1-1.68,14.93C379.7,387.69,374.6,406.38,364.17,404.44Zm36.93,20.33a1.36,1.36,0,0,1-1.84-.56c-2.46-4.58-7.78-8-13.89-9-5.17-.84-9.89.23-12.65,2.84a1.36,1.36,0,1,1-1.88-2c3.37-3.2,9-4.53,15-3.56,7,1.14,13,5,15.86,10.43A1.38,1.38,0,0,1,401.1,424.77Zm29.59-39.14c-2.37,11.26-7.88,29.84-18.27,27.66s-8-21.4-5.6-32.67a91.27,91.27,0,0,1,4.37-15c-1.28.63-2.45,1.26-3.46,1.87-.57.35-2.45,1.13-3.14-.34s1-2.78,1.84-3.3c10-5.72,29.13-11.7,39.74-12.06h0a1.91,1.91,0,0,1,.1,3.81,69.38,69.38,0,0,0-15.2,2.74C434.08,365.37,432.38,377.54,430.69,385.63Zm43.89,30c-.74,5.71-7.56,9.7-16.59,9.7h0a30.42,30.42,0,0,1-3.91-.25c-10.45-1.35-18.26-7.78-17.42-14.34.73-5.71,7.55-9.7,16.58-9.7a30.44,30.44,0,0,1,3.91.26C467.6,402.64,475.42,409.07,474.58,415.63Z" style="fill: #f6a0a6"/>
    <path id="color-2" d="M343.26,398.13c-.89,3.86-5.85,6.46-12.34,6.46a26.29,26.29,0,0,1-6-.7c-8.89-2.05-15.14-8-13.93-13.22.89-3.87,5.86-6.47,12.35-6.47a26.78,26.78,0,0,1,6,.7C338.22,387,344.47,392.89,343.26,398.13Z" style="fill: #f16d9a"/>
    <path id="color-6" d="M376.17,382.93c-3.05,11.5-7.19,17.93-11.2,17.18s-5.54-8.24-4.23-20.06a8.81,8.81,0,0,0,15.43,2.88Z" style="fill: #007dc3"/>
    <path id="color-6-2" data-name="color-6" d="M424.9,392.06c-3.3,11.43-7.58,17.76-11.57,16.93s-5.37-8.36-3.8-20.15a8.82,8.82,0,0,0,15.37,3.22Z" style="fill: #007dc3"/>
    <path id="color-2-2" data-name="color-2" d="M472.85,415.41c-.62,4.74-6.86,8.18-14.86,8.18a28.93,28.93,0,0,1-3.69-.24c-9.49-1.23-16.63-6.78-15.91-12.39.61-4.73,6.85-8.17,14.85-8.17a28.9,28.9,0,0,1,3.69.23C466.43,404.25,473.57,409.81,472.85,415.41Z" style="fill: #f16d9a"/>
    <path id="color-3" d="M497.89,465.62c12.78,14.14,22.08,34.93,23.23,54,.57,9.5-.74,22.46-10.21,30.26-6.33,5.21-16,8.08-27.36,8.08h0c-21.25,0-52.87-10.48-75.54-39.28a107.83,107.83,0,0,0,85.17-53h0C494.79,465.68,496.34,465.67,497.89,465.62Z" style="fill: #e50e63"/>
    <path id="color-3-2" data-name="color-3" d="M375.26,516c-24.66,15-51.4,20.85-74.09,15.71-12.37-2.8-21.58-8.76-25.29-16.35-8.31-17,3.41-47.62,23.37-67.24A108,108,0,0,0,375.26,516Z" style="fill: #e50e63"/>
    <path id="color-1-2" data-name="color-1" d="M33.23,483.3c-4,0-6.06-1.68-7.1-3.09-1.86-2.53-2.05-6.28-.55-11.15l16-51.88A26.94,26.94,0,0,1,60.9,398.5a19.94,19.94,0,0,1,4.85-.68c3.93,0,6,1.68,7,3.09,1.88,2.55,2.07,6.31.58,11.18l-1.65,5.34L92,398.25c7.68-7.22,11.18-10.51,17.18-12a16.75,16.75,0,0,1,4-.53c3.27,0,5.93,1.17,7.5,3.3a8.15,8.15,0,0,1,1,7.43c-1.23,4-3.89,6.95-11.26,13.83l-17,15.59,6.67,9.15L90,455.27c-1.66,3.35-1.85,6.22-.55,8.32a5.55,5.55,0,0,0,1,1.18l4.17,3.72-5.48,1.11A16,16,0,0,1,86,470h0c-5,0-7.68-3.05-9.84-6.34l-2.53-3.86c-3.14-4.77-7-10.61-8.69-13.34a10.26,10.26,0,0,0-3.22,4.69c-1.33,4.12-4,12.19-4.25,12.79a27.07,27.07,0,0,1-19.38,18.76A20.91,20.91,0,0,1,33.23,483.3Z" style="fill: #f6a0a6"/>
    <path id="color-1-3" data-name="color-1" d="M95.88,466.51c-3.79,0-5.57-1.59-6.39-2.92-1.32-2.13-1.14-4.93.55-8.32l9.93-20c2.81-5.65,7.91-9.15,13.63-9.37h.55c3.8,0,5.58,1.58,6.4,2.91,1.32,2.12,1.11,4.95-.6,8.41l-9.9,19.91c-2.86,5.74-7.82,9.16-13.64,9.37Zm20.66-42.7c5.62,0,10.66-3.24,13.85-8.92l.31-.56c2-3.55,2.36-6.48,1.07-8.72-.79-1.38-2.57-3-6.52-3.08h-.17c-5.53,0-10.7,3.32-13.86,8.93l-.34.63c-2,3.49-2.31,6.39-1,8.63.8,1.39,2.58,3.05,6.51,3.1Z" style="fill: #f6a0a6"/>
    <path id="color-1-4" data-name="color-1" d="M120,466.94c-3.57,0-5.39-1.5-6.29-2.75-1.44-2-1.59-4.77-.44-8.18l7.75-22.9c2.45-7.25,7.17-11.45,14.42-12.83a16.44,16.44,0,0,1,3.08-.33,7.09,7.09,0,0,1,5.21,1.89,6.64,6.64,0,0,1,.55.64,26.69,26.69,0,0,1,12.89-6.35,17.13,17.13,0,0,1,3.13-.32c3.51,0,5.27,1.43,6.14,2.64s1.62,3.24.55,6.41c-1.58,4.69-6.25,8.43-12.17,9.75l-4.44.92c-5.27,1.13-7.31,3-9.06,8.16l-3.51,10.36a18.68,18.68,0,0,1-14.64,12.56,16.75,16.75,0,0,1-3.17.33Z" style="fill: #f6a0a6"/>
    <path id="color-1-5" data-name="color-1" d="M168.41,457.88c-.55,0-1.1,0-1.64-.05-4.41-.27-7.59-1.48-10-3.86a16.13,16.13,0,0,1-8.59,2.7l-.87,0c-1.21-.08-4.88-.3-6.37-3.33-1.38-2.78-.27-6.4,3.82-12.47l3.26-4.85,1.21-.19c13.27-2.06,16.48-7.23,17.73-10.95,1.13-3.34.14-5.45-.55-6.41a6,6,0,0,0-1.85-1.64L162,415.32,170.29,403c4.19-6.22,9.93-9.79,15.75-9.79.29,0,.59,0,.88,0,4,.24,5.72,2.07,6.45,3.56,1.3,2.62.52,6.09-2.32,10.31l-1.76,2.62A25,25,0,0,1,195,409c.54,0,1.08,0,1.62,0,7.13.44,10.22,3.77,11.56,6.48,2.56,5.18.89,12.61-4.7,20.91-8.75,13-22.53,21.41-35.1,21.41Zm13-21.6c1.2.54,2.16.92,2.88,1.17.11-.82.21-1.95.27-3.41l.05-1.16.86-.79c.84-.76,1.53-1.43,2.1-2-.55-.11-1.18-.23-1.88-.34l-1.55-.24-.6-1.45c-.32-.78-.62-1.43-.88-2-.55.67-1.27,1.58-2.14,2.79l-.63.87-1.05.22c-1.49.32-2.67.62-3.53.88.37.51.85,1.15,1.49,1.92l.93,1.14-.41,1.41c-.21.73-.38,1.37-.52,1.93.65-.27,1.41-.59,2.31-1l1.15-.51Z" style="fill: #f6a0a6"/>
    <path id="color-1-6" data-name="color-1" d="M184.16,481.13a21.5,21.5,0,0,1-8.33-1.59c-4.11-1.73-6.75-4.49-7.42-7.79-.62-3,.5-6.2,3.15-8.93,3-3.12,7.36-5.21,10.79-5.21a7,7,0,0,1,2.51.44,8.41,8.41,0,0,1,3.08,2.55c.25.28.61.68.83.9H189a3.88,3.88,0,0,0,3.3-1.92l2.87-5.36c5.14-9.61,14.71-27.5,15.81-29.43l.39-.68c1.83-3.23,3.91-6.82,5.48-8.55,3.84-4.23,8.75-6.65,13.47-6.65a11.9,11.9,0,0,1,4.58.88,6.47,6.47,0,0,1,4,4.07c1.07,3.49-1.06,7.8-4.58,13.21L228.65,436l12.22-8.92c7.35-5.33,11.55-7.32,15.51-7.32a11.14,11.14,0,0,1,4.4.92,7.24,7.24,0,0,1,4.5,5.57c.54,3.36-1.13,7.1-4.46,10a67,67,0,0,1-9.54,6.92L204.93,472.8c-9.07,5.78-13.18,7.62-18.37,8.22h-.08C185.7,481.1,184.92,481.13,184.16,481.13Z" style="fill: #f6a0a6"/>
  </g>
  <g id="outline">
    <g id="Sword_01">
      <g>
        <path d="M385.8,412.49c-6-1-11.59.36-15,3.56a1.36,1.36,0,1,0,1.88,2c2.76-2.61,7.48-3.68,12.65-2.84,6.11,1,11.43,4.45,13.89,9a1.36,1.36,0,0,0,1.84.56,1.38,1.38,0,0,0,.56-1.85C398.77,417.53,392.84,413.63,385.8,412.49Z"/>
        <g>
          <path d="M329.73,383.2a28.59,28.59,0,0,0-6.37-.74c-7.44,0-12.95,3.07-14.05,7.82-1.43,6.17,5.41,13,15.24,15.31a28,28,0,0,0,6.37.75c7.43,0,12.94-3.07,14-7.82C346.39,392.35,339.55,385.47,329.73,383.2Zm13.53,14.93c-.89,3.86-5.85,6.46-12.34,6.46a26.29,26.29,0,0,1-6-.7c-8.89-2.05-15.14-8-13.93-13.22.89-3.87,5.86-6.47,12.35-6.47a26.78,26.78,0,0,1,6,.7C338.22,387,344.47,392.89,343.26,398.13Z"/>
          <path d="M457.15,401.3a30.44,30.44,0,0,0-3.91-.26c-9,0-15.85,4-16.58,9.7-.84,6.56,7,13,17.42,14.34a30.42,30.42,0,0,0,3.91.25h0c9,0,15.85-4,16.59-9.7C475.42,409.07,467.6,402.64,457.15,401.3Zm15.7,14.11c-.62,4.74-6.86,8.18-14.86,8.18a28.93,28.93,0,0,1-3.69-.24c-9.49-1.23-16.63-6.78-15.91-12.39.61-4.73,6.85-8.17,14.85-8.17a28.9,28.9,0,0,1,3.69.23C466.43,404.25,473.57,409.81,472.85,415.41Z"/>
        </g>
        <g>
          <path d="M381.82,376.38a94.35,94.35,0,0,0,1.68-14.93c.48.73.94,1.44,1.37,2.15.29.47,1.14,2.13,3,1.08,1.65-.92.47-2.66.11-3.25-6.66-10.88-19.41-22.42-28.61-27.34a1.91,1.91,0,0,0-1.78,3.37A64.27,64.27,0,0,1,369,345.55c-6.14,4.76-9.51,17.7-11.13,26.35-2.11,11.31-4.1,30.59,6.33,32.54S379.7,387.69,381.82,376.38Zm-15.67-18.46c.88-4.73,2.79-8.58,5.41-10a93,93,0,0,1,8,8.39,27.16,27.16,0,0,1-.44,4.07c-1.22,6.52-4.4,11.39-8.7,10.59S364.93,364.43,366.15,357.92ZM365,400.11c-4-.75-5.54-8.24-4.23-20.06a8.81,8.81,0,0,0,15.43,2.88C373.12,394.43,369,400.86,365,400.11Z"/>
          <path d="M446.27,355.59a1.91,1.91,0,0,0-.1-3.81h0c-10.61.36-29.77,6.34-39.74,12.06-.89.52-2.53,1.83-1.84,3.3s2.57.69,3.14.34c1-.61,2.18-1.24,3.46-1.87a91.27,91.27,0,0,0-4.37,15c-2.36,11.27-4.78,30.5,5.6,32.67s15.9-16.4,18.27-27.66c1.69-8.09,3.39-20.26.38-27.3A69.38,69.38,0,0,1,446.27,355.59ZM413.33,409c-4-.84-5.37-8.36-3.8-20.15a8.82,8.82,0,0,0,15.37,3.22C421.6,403.49,417.32,409.82,413.33,409Zm15-39.46c-1.36,6.49-4.65,11.3-8.93,10.4s-5.36-6.62-4-13.11a27.21,27.21,0,0,1,1-3.54c3.55-1.45,7.49-2.83,11.44-4C429.1,361.72,429.2,365.48,428.35,369.53Z"/>
        </g>
      </g>
      <path d="M350.69,278.8a27,27,0,0,0,10.66,2.2c9.32,0,17.65-5,21.22-12.7a21.93,21.93,0,0,0,.37-17.17,24.62,24.62,0,0,0-13.24-13.7,25.2,25.2,0,0,0-10-2c-9.63,0-18.59,5.41-22.32,13.45a20.57,20.57,0,0,0-.42,16.1A25.2,25.2,0,0,0,350.69,278.8Zm28.42-12.09c-2.95,6.37-9.92,10.48-17.76,10.48a23.29,23.29,0,0,1-9.16-1.89,21.38,21.38,0,0,1-11.63-11.67,16.48,16.48,0,0,1,1.47-6,18.54,18.54,0,0,1,6.06-7.21c1.16,3.67,5.09,6.68,10.13,7.37,6.52.9,12.47-2.44,13.28-7.43a6.57,6.57,0,0,0,.08-1.47,20.64,20.64,0,0,1,9.08,10A17.39,17.39,0,0,1,379.11,266.71ZM359.72,239.2a21.54,21.54,0,0,1,8.48,1.73,20.83,20.83,0,0,1,9.68,8.53A24.13,24.13,0,0,0,371,245c-.4-.18-.82-.32-1.23-.46l-4.64-1.64,2.43,3.94a4.36,4.36,0,0,1,.71,3c-.52,3.2-4.91,5.37-9.62,4.71-4.5-.62-7.93-3.64-7.63-6.74l.3-3.1-2.72,1.52a22.38,22.38,0,0,0-9.14,9.26,16.18,16.18,0,0,1,1.4-5.06C344,243.72,351.55,239.2,359.72,239.2Z"/>
      <path d="M552.75,411.2a37.82,37.82,0,0,0-17.84-24.72c4.53-25.34-2.72-54.22-19.79-78-20.4-28.4-52.75-46.4-91.21-50.86a31,31,0,0,0-1.68-3.43c-1.68-2.89-3.75-3.21-4.83-3.15-1.29.08-3.1.78-4.33,3.68a16.17,16.17,0,0,1-.85,1.59l-3.52-.17c-4.2-.2-8.53-.38-12.9-.27A34.27,34.27,0,0,0,391.57,245l93-126.1.62-.84L474.56,10.83,386,72.17,349.69,226.66a34.93,34.93,0,0,0-18.93,10.18c-5-5.3-6.39-12.62-3.38-18.67,1.4-2.82.75-4.62-.05-5.64-.67-.86-2.3-2.19-5.68-1.46-18.6,4.07-28.82,23.74-30.45,40.3a37.12,37.12,0,0,0,6.13,24.1l-1.84.95c-13.05-2.12-30-13.23-45-26A32.94,32.94,0,1,0,220,260.49h0c1.33,21.39,12.21,49.42,31.51,72.34a152.4,152.4,0,0,0,26.25,24.63c1.81,18.72,9,35.78,15.39,45.06,0,.16,0,.33,0,.49s0,.24,0,.36h0c-.21,2.69-.31,5.38-.31,8a107,107,0,0,0,4.72,31.52c-22.61,21-35.59,55-26,74.54,4.36,8.93,14.79,15.85,28.6,19A80.89,80.89,0,0,0,318,538.39c20.84,0,43.4-7.37,64.17-21a107.7,107.7,0,0,0,18.17,1.57c.54,0,1.09-.05,1.63-.06,23.87,32.33,58.51,44,81.57,44h0c12.63,0,23.17-3.18,30.47-9.19,8.76-7.22,12.91-19.1,12-34.35-1.13-18.82-9.85-39.28-22.1-54.13,13.9-1.71,26-7.64,34-14.94,10.07-9.13,15.48-21,15.48-32.29A32.7,32.7,0,0,0,552.75,411.2ZM425.64,263.34c35.88,4.72,66,21.76,85.05,48.32,15.85,22.07,22.84,48.68,19.17,72.19a48.36,48.36,0,0,0-9.14-2.91h0C509.29,349,490.58,327.06,468.91,313a135.52,135.52,0,0,0-50.11-19.41C424.38,284.5,427.65,273.56,425.64,263.34Zm72,99.61c-10-15.74-20.58-24.68-21.89-21.66-.8,1.85,8.24,9.08,18.34,25.19a100.74,100.74,0,0,1,7.68,13.88c-1.9.26-3.81.6-5.61,1h0c-12.79-19.88-34.08-37.68-60.95-49.07a143.53,143.53,0,0,0-55.47-11.7,106,106,0,0,0-32.5,4.87c2.09-4,3.91-7.48,5.24-10.06A39.08,39.08,0,0,0,365,313a75.43,75.43,0,0,0,16.08,2.44c11.88,0,22.66-4.22,30.47-12.4a56.52,56.52,0,0,0,4.4-5.23c17.9,3.06,35.82,9.85,50.3,19.27,20.23,13.16,37.78,33.34,48.94,63a33.23,33.23,0,0,0-8.28-.23l-1.8.19,1.81-.27A106.28,106.28,0,0,0,497.67,363Zm-194.11-2.54c.48-1,2-1.65,4.05-1.65a13.18,13.18,0,0,1,5.44,1.29c4.4,2,6.73,5.62,5.88,7.47-.47,1-2,1.64-4.05,1.64a13.16,13.16,0,0,1-5.44-1.28C305,365.84,302.71,362.26,303.56,360.41Zm11.78-5.3a18.68,18.68,0,0,0-7.73-1.79c-.43,0-.84,0-1.25.06.67-1.68,1.45-3.65,2.3-5.77a27.25,27.25,0,0,0,5.08-.66c9.4-2.12,18-9.73,22.77-17.6,4.13-6.81,5.51-16.42,2.84-23.61a19.68,19.68,0,0,0-9-10.61c3.31-2.5,8.45-3,13.11-.81,6.31,2.92,9.51,9.47,7.14,14.6-.2.43-21.37,39.12-28.13,51.9A18,18,0,0,0,315.34,355.11Zm13.11-75.28a22,22,0,0,1-4.23-13.45c.27,1,.6,2,1,2.94a37.46,37.46,0,0,0,20.37,20.58,40.2,40.2,0,0,0,15.87,3.28,37.06,37.06,0,0,0,16.94-4,22.76,22.76,0,0,1-14.49,6.28,1.9,1.9,0,0,0-1.65,1.1s-4.31,9.39-4.92,10.63a2.47,2.47,0,0,0-.08,2.31c-1,.16-1.93.3-2.91.38,2.72-6.92-1.3-15.31-9.27-19-6.82-3.16-14.35-2-18.63,2.64-.7-.21-1.4-.41-2.12-.56.68-1.44,4.2-9,4.55-9.77A3.29,3.29,0,0,0,328.45,279.83Zm35.66,21.73a68.11,68.11,0,0,0,20.06,3.23,45.66,45.66,0,0,0,24.54-6.69c-.37.41-.73.81-1.11,1.2-10.7,11.21-28,13.76-45.63,6.89Zm53.7-44.12c4.19,7.67,5.24,25.73-8.85,35.91-12.94,9.35-30.19,8.26-40.9,5.39,6.51-1.32,11.82-5.13,16-9.73,12.75,1.7,25.32-2.22,28.71-15.68.43-1.69-.74-1.95-1.74-.55-4.46,6.23-12.27,9.27-20.67,7.44a53.24,53.24,0,0,0,4.45-10.12C404.94,270.82,413.87,265.9,417.81,257.44Zm-10.49,4.09a19.66,19.66,0,0,1-11,3.35,28.61,28.61,0,0,0,.11-3.58C400,261.23,403.72,261.36,407.32,261.53Zm-31.84-31.26,54.35-117.53,48.54,5.3L388.25,240.28A39.33,39.33,0,0,0,375.48,230.27Zm52.31-123.5-35.52-32.3,75.14-52.06Zm51.58,8.06-47.62-6.23,38.63-84.69ZM390.42,77.29l35.45,33.63-54.4,117.62a41.17,41.17,0,0,0-16-2.56ZM357.25,230.58a36.12,36.12,0,0,1,14.36,3A33.57,33.57,0,0,1,389.93,252a26.54,26.54,0,0,1-.53,20.81c-4.65,10.06-15.63,16.57-28,16.57a36.2,36.2,0,0,1-14.37-3A33.58,33.58,0,0,1,328.75,268a26.58,26.58,0,0,1,.52-20.81C333.93,237.09,344.91,230.58,357.25,230.58Zm-35.13-14c-3.76,8.45-1.7,18,5.56,24.79a52,52,0,0,0-4.85,10.13c-6.55-4.64-9.72-12.77-8-19.87.41-1.66-.57-2.32-1.59-.88-8.11,11.42-2.74,23,7.09,31-.73,6.09-.07,12.48,3.32,18-9.39-5.69-22.2-16.52-23.37-32.89C299.08,229.62,313.4,218.72,322.12,216.55Zm-25.26,33.34c2.86,18.08,17.47,29.08,27.19,34.5l-2.16,4.67C305.07,281.17,294.18,266.83,296.86,249.89Zm-98.68-21.75a28,28,0,1,1,48.59,19l-2.21-2a13.54,13.54,0,0,0-8.92-3.18A14.86,14.86,0,0,0,225,246.49a17.37,17.37,0,0,0-4.47,9.07A28.05,28.05,0,0,1,198.18,228.14ZM277.39,351a147.36,147.36,0,0,1-22.11-21.33c-18.73-22.21-30-51.05-30.35-69.18-.1-5.23,1.55-8.53,3.55-10.59a9.89,9.89,0,0,1,7.16-3h0a8.62,8.62,0,0,1,5.61,1.92c14.51,13,31.31,25.64,46.49,30.64-6.25,1.86-15.53,1.07-17.88.68-7-.66-13.28-5.29-13.82-2.87s5.71,6,13.85,7.84c11.06,2.06,20.59-.25,27.1-4h0l3.21-1.66a52.28,52.28,0,0,0,14.44,12c.15.35.32.69.47,1-12.73,1.41-26.21,11.12-33.52,30.82A73.74,73.74,0,0,0,277.39,351Zm23.78,180.65c-12.37-2.8-21.58-8.76-25.29-16.35-8.31-17,3.41-47.62,23.37-67.24a108,108,0,0,0,76,67.88C350.6,530.94,323.86,536.8,301.17,531.66Zm220-12.07c.57,9.5-.74,22.46-10.21,30.26-6.33,5.21-16,8.08-27.36,8.08h0c-21.25,0-52.87-10.48-75.54-39.28a107.83,107.83,0,0,0,85.17-53h0c1.58.06,3.13.05,4.68,0C510.67,479.76,520,500.55,521.12,519.59Zm13.54-73c-9.15,8.27-22.67,14.15-40.31,14.15-3.88,0-14.75-1.11-15,1.19-.15,1.45,4.16,2.54,8.42,3.15A102.6,102.6,0,0,1,297.71,411.4a104,104,0,0,1,.61-11.23h0c1.41-12.44,5.5-24.05,3.15-24.53-1.62-.33-4.12,5.6-6,13.41l-1,5c-9.09-16.34-16.44-45.13-7.66-68.79,8.46-22.82,25.78-30.56,38.52-26.4a14.08,14.08,0,0,1,9,8.81c2.1,5.67.9,13.48-2.4,18.89-5,8.19-12.39,14-19.14,15.74-7.87,2.08-14.1-.74-14.76.6-.28.58,1.28,2.9,5.12,4.07-2.68,6.72-4.51,11.34-4.51,11.34h0c-2.16,4.94,1.57,11.31,8.58,14.55a18.68,18.68,0,0,0,7.73,1.79c4.17,0,7.49-1.75,8.92-4.68h0c.17-.3,11.26-21.24,20.14-38.13a98.39,98.39,0,0,1,35.83-6.32,138.62,138.62,0,0,1,53.56,11.32c25.48,10.74,45.55,27.47,57.83,45.85l.65-.17-.65.17c-3.9,1.2-6.53,2.59-6.28,3.74.56,2.64,10.69-1.9,24.13-1.73,22.38.06,35.81,12.71,39,27.54a28.41,28.41,0,0,1,.57,5.73C548.54,427.59,543.81,438.31,534.66,446.59Z"/>
    </g>
    <path d="M270.63,425.38a12.56,12.56,0,0,0-7.75-9.71,16.56,16.56,0,0,0-6.5-1.34c-4,0-7.81,1.42-12,3.9a12.59,12.59,0,0,0-.32-6,11.76,11.76,0,0,0-7-7.48,17.14,17.14,0,0,0-6.68-1.3c-6.25,0-12.62,3.07-17.48,8.43a3.73,3.73,0,0,0-.26.3c-1.8-3.09-5.72-7.4-13.87-8.4a12.29,12.29,0,0,0-.47-9.46c-1.12-2.27-3.88-6.08-11-6.57C179,387.22,171,392.2,165.79,400l-7.07,10.51c-.83.07-1.68.18-2.56.34a31.63,31.63,0,0,0-11.91,4.9,13.47,13.47,0,0,0-5.72-1.17c-.63,0-1.27,0-1.95.1,2.3-5.41,1.28-9.31-.11-11.72-1.12-1.94-3.78-5.07-9.4-5.69a13.29,13.29,0,0,0-2-11.46c-2.62-3.55-6.84-5.51-11.87-5.51a21.81,21.81,0,0,0-5.38.71c-7.35,1.87-11.69,6-19.56,13.35l-8.86,8.38a13.3,13.3,0,0,0-2.26-5c-1.79-2.41-5.21-5.29-11.4-5.29a25,25,0,0,0-6.19.85,32.23,32.23,0,0,0-23.2,22.33l-1.52,4.94-14.44,47c-2,6.6-1.57,12,1.37,16,1.78,2.41,5.22,5.29,11.46,5.29a26.28,26.28,0,0,0,6.06-.79l.07,0a32.4,32.4,0,0,0,23.23-22.35c.47-1.41,1.69-5,2.81-8.4,1.15,1.75,5.46,8.31,6.18,9.42,2.48,3.78,6.66,8.8,14.38,8.8a24.32,24.32,0,0,0,6.2-.91,33.62,33.62,0,0,0,7.24-2.84,20.08,20.08,0,0,0,9.72-4.57c1.65,2.42,5,5.3,10.89,5.3a22.53,22.53,0,0,0,4.19-.42,24.39,24.39,0,0,0,16.59-11.46c5.28,2.6,12.76,1.48,15.45-.12a20.47,20.47,0,0,0,8.41,2.73,14.16,14.16,0,0,0-1.55,9.75c1,5.1,4.82,9.26,10.63,11.7a26.89,26.89,0,0,0,10.43,2c7.87,0,13.81-2.88,23.69-9.18l46.35-29.64a72.8,72.8,0,0,0,10.19-7.4C269.14,436.18,271.47,430.6,270.63,425.38ZM125.21,405.32c4.68.06,5.78,2.79,3,7.63l-.32.61c-2.73,4.85-6.87,7.51-11.54,7.46s-5.77-2.79-3.08-7.57l.36-.67C116.37,408,120.63,405.26,125.21,405.32ZM78.46,462.07c-3.2-4.88-9.8-14.86-11.59-17.8s-6.41,1.56-7.84,6S54.77,463,54.77,463a24.18,24.18,0,0,1-17.41,16.91c-8.38,2-11.76-1.45-9.11-10.05l16-51.89a24.24,24.24,0,0,1,17.38-16.79c8.41-2.14,11.72,1.56,9.11,10.05l-4.77,15.5,28-26.48c7.93-7.45,10.85-10.06,16-11.36,6.48-1.65,10.76,1.39,9.14,6.67-1,3.21-3.18,5.78-10.5,12.61L89.72,425.46l7.14,9.8L87.54,454c-2.68,5.38-1.71,9-.43,11a8.44,8.44,0,0,0,1.52,1.8C83.82,467.83,81.35,466.49,78.46,462.07Zm29.09-6.18c-2.41,4.85-6.44,7.64-11.24,7.82s-6.14-2.42-3.77-7.2l9.93-20c2.38-4.77,6.53-7.64,11.24-7.82s6.14,2.43,3.74,7.27Zm31.13-13.1-3.51,10.36a16,16,0,0,1-12.51,10.72c-6.11,1.17-8.62-1.38-6.73-7l7.75-22.9c2.13-6.31,6.07-9.79,12.29-11,4.91-.93,7,.49,7,4.73,4.46-5,9.18-7.81,14.75-8.88s8.05,1,6.65,5.09c-1.28,3.81-5.16,6.82-10.13,7.92l-4.4.91C143.55,434.14,140.76,436.64,138.68,442.79ZM166.94,455c-4.67-.28-7.54-1.69-9.55-4.8-4,2.83-6.85,3.8-9.87,3.62-5.59-.35-5.75-3.52-.41-11.45l2.59-3.84c13-2,18-7.12,20-12.82,1.53-4.51.07-7.53-.93-8.93a8.56,8.56,0,0,0-2.74-2.44l6.63-9.85c3.86-5.73,9-8.85,14.14-8.53s5.84,3.78,2,9.52l-6.75,10c5.25-2.85,9.73-4,14.5-3.69,11.45.7,13.4,10.14,4.71,23C192.62,447.65,178.76,455.77,166.94,455Zm92-20.9a64.66,64.66,0,0,1-9.2,6.67l-46.36,29.64c-8.72,5.55-12.5,7.25-17.18,7.79a19.51,19.51,0,0,1-9.33-1.28c-6.32-2.65-7.71-7.71-3.35-12.2,3.09-3.18,7.82-5.07,10.29-4.11,1.29.5,2.78,3.19,4,3.51a6.54,6.54,0,0,0,6.95-3.25c1.59-3,17.25-32.28,18.64-34.72,1.13-2,3.86-6.91,5.52-8.74,4.7-5.18,10.76-6.8,14.9-5.07s3,5.7-1.87,13.17l-13.47,21.33,24.05-17.55c8.85-6.42,13-7.85,17.18-6.08S263.45,430.24,259,434.14Z"/>
    <path d="M186.07,427c-.65-1.57-2.18-5-3.09-5s-3.58,3.6-4.77,5.24c-1.93.41-6.15,1.4-6.56,2.24s1.87,3.76,2.94,5.07c-.53,1.82-1.62,5.87-1,6.36s4.75-1.27,6.6-2.11c1.59.72,5.15,2.23,6,1.69s1.06-4.54,1.13-6.36c1.52-1.38,4.81-4.49,4.67-5.32S187.87,427.29,186.07,427Z"/>
  </g>
</svg>
